# xmcd
# Copyright (C) 1995-1998 Ti Kan
#
# Track frame offsets:
#       150
#       21990
#       39729
#       56605
#       81020
#       97492
#       122604
#       139053
#       167957
#       187563
#       210526
#       236432
#       259062
#       275141
#       300423
#       315002
#
# Disc length: 4386 seconds
#
# Revision: 0
# Processed by: cddbd v1.5.2PL0 Copyright (c) Steve Scherf et al.
# Submitted via: CD-Import v1.0
#
DISCID=d7112010
DTITLE=Kompil 08/3 - Promo
DYEAR=1900
DGENRE=
TTITLE0=Le Monde Est Sourd
TTITLE1=Ma Plume Pleut
TTITLE2=Girls Don't Cry
TTITLE3=Sad's Marchioness
TTITLE4=Éphémère
TTITLE5=Apatride
TTITLE6=Walking Alone
TTITLE7=No Stress
TTITLE8=An Other Man
TTITLE9=Some Are Borne
TTITLE10=Politika Kriminalu
TTITLE11=Pasha Ruki
TTITLE12=Little Boy
TTITLE13=Las Où On Vit
TTITLE14=With A Candle In My Hand
TTITLE15=Marie-J
EXTD=
EXTT0=
EXTT1=
EXTT2=
EXTT3=
EXTT4=
EXTT5=
EXTT6=
EXTT7=
EXTT8=
EXTT9=
EXTT10=
EXTT11=
EXTT12=
EXTT13=
EXTT14=
EXTT15=
PLAYORDER=
